#!OML:ASF H:\Male1\Project 1\Capture day 1\Session 1\Male1.ASF
:FULLY-SPECIFIED
:DEGREES
573
root 1.78373 15.3257 0.0330447 436.141 -88.032 -437.794
lowerback 9.72793 3.79946 0.493668
upperback 6.01974 4.82074 -1.88726
thorax 1.02515 2.35681 -2.63628
lowerneck -6.59193 -0.311022 3.79534
upperneck 4.19664 -1.0251 3.82443
head 2.47362 -0.343278 0.525797
rclavicle 3.39922e-014 -2.54444e-014
rhumerus -33.2066 5.38908 -91.555
rradius 38.1097
rwrist -19.3661
rhand -19.7199 1.45728
rfingers 7.12502
rthumb 6.61024 -28.4195
lclavicle 3.39922e-014 -2.54444e-014
lhumerus -50.0401 -3.87618 79.3185
lradius 39.921
lwrist 8.73195
lhand -14.8526 14.694
lfingers 7.12502
lthumb 11.3069 44.3692
rfemur 10.227 -3.54405 31.4654
rtibia 21.2874
rfoot -18.3167 -17.834
rtoes -25.4517
lfemur -32.3666 -13.2685 -17.8835
ltibia 43.8744
lfoot -10.7401 7.27179
ltoes -19.0306
574
root 1.57865 15.2814 0.0553229 457.586 -87.8743 -459.121
lowerback 9.45753 3.72356 0.589764
upperback 5.82346 4.73999 -1.89234
thorax 0.971836 2.32217 -2.677
lowerneck -6.56196 -0.102628 3.87081
upperneck 4.33968 -0.750933 3.69929
head 2.51483 -0.205922 0.48451
rclavicle -6.81831e-014 2.62396e-014
rhumerus -33.3244 5.76334 -91.71
rradius 38.3066
rwrist -19.4103
rhand -19.2444 1.30502
rfingers 7.12502
rthumb 7.06927 -28.5569
lclavicle -6.81831e-014 2.62396e-014
lhumerus -49.9215 -3.06249 79.3137
lradius 38.0692
lwrist 7.19268
lhand -14.4557 14.5803
lfingers 7.12502
lthumb 11.6897 44.2341
rfemur 10.9722 -3.33594 31.3821
rtibia 21.3614
rfoot -18.212 -17.3671
rtoes -26.3448
lfemur -31.0145 -15.5326 -17.1965
ltibia 38.5963
lfoot -10.2841 8.92016
ltoes -18.1424
575
root 1.37181 15.2311 0.0783655 474.773 -87.3843 -476.33
lowerback 9.24077 3.66066 0.722144
upperback 5.68494 4.67576 -1.84987
thorax 0.949426 2.29507 -2.69197
lowerneck -6.4864 0.12219 3.97962
upperneck 4.46553 -0.450558 3.52119
head 2.54222 -0.0574953 0.421578
rclavicle -1.47101e-014 7.95139e-015
rhumerus -33.4694 6.18424 -91.8512
rradius 38.5516
rwrist -19.4993
rhand -18.8452 1.19995
rfingers 7.12502
rthumb 7.45453 -28.6487
lclavicle -1.47101e-014 7.95139e-015
lhumerus -49.7332 -2.18675 79.3024
lradius 36.3389
lwrist 5.72843
lhand -14.2703 14.4758
lfingers 7.12502
lthumb 11.8685 44.1194
rfemur 11.5196 -3.2355 31.2547
rtibia 22.0559
rfoot -17.9681 -16.7546
rtoes -27.2109
lfemur -29.6816 -17.8616 -16.4425
ltibia 34.5337
lfoot -9.71493 10.7565
ltoes -16.6003
576
root 1.16352 15.1796 0.101018 486.102 -86.6512 -487.814
lowerback 9.10051 3.62137 0.864178
upperback 5.58552 4.64044 -1.76507
thorax 0.924778 2.28099 -2.67486
lowerneck -6.34034 0.351644 4.10922
upperneck 4.56893 -0.139234 3.32482
head 2.55001 0.0948432 0.34943
rclavicle -8.94531e-015 2.14687e-014
rhumerus -33.652 6.60067 -91.9653
rradius 38.8117
rwrist -19.5926
rhand -18.511 1.14133
rfingers 7.12502
rthumb 7.77711 -28.6956
lclavicle -8.94531e-015 2.14687e-014
lhumerus -49.4479 -1.23862 79.2697
lradius 34.6748
lwrist 4.34966
lhand -14.2242 14.3731
lfingers 7.12502
lthumb 11.9129 44.0141
rfemur 11.8516 -3.2192 31.0935
rtibia 23.3757
rfoot -17.5436 -16.0802
rtoes -27.7552
lfemur -28.3647 -19.8722 -15.8047
ltibia 31.7237
lfoot -9.23828 12.5876
ltoes -13.6495
577
root 0.954078 15.1307 0.122973 493.398 -85.7769 -495.37
lowerback 8.99621 3.61334 0.989585
upperback 5.54097 4.64211 -1.65821
thorax 0.936472 2.28398 -2.62898
lowerneck -6.15727 0.56956 4.25537
upperneck 4.64599 0.157191 3.15042
head 2.54329 0.239614 0.280499
rclavicle -1.59028e-015 -2.38542e-015
rhumerus -33.8068 6.92657 -92.0339
rradius 39.0188
rwrist -19.6044
rhand -18.2025 1.16622
rfingers 7.12502
rthumb 8.07492 -28.6595
lclavicle -1.59028e-015 -2.38542e-015
lhumerus -48.9733 -0.175018 79.1721
lradius 33.0089
lwrist 2.99605
lhand -14.2434 14.2525
lfingers 7.12502
lthumb 11.8944 43.8946
rfemur 11.9195 -3.24811 30.8927
rtibia 25.3423
rfoot -17.018 -15.3427
rtoes -28.2306
lfemur -27.0556 -21.1863 -15.4553
ltibia 30.0387
lfoot -8.61567 14.3213
ltoes -10.8518
578
root 0.744659 15.0896 0.145264 500.015 -85.0273 -502.317
lowerback 8.91235 3.63062 0.865948
upperback 5.54118 4.65528 -1.61993
thorax 0.969448 2.28638 -2.51615
lowerneck -5.94673 0.760505 4.40965
upperneck 4.71089 0.414637 3.04077
head 2.52822 0.366327 0.228951
rclavicle 0 2.06736e-014
rhumerus -33.9107 7.04743 -92.0487
rradius 39.0971
rwrist -19.4339
rhand -17.916 1.3086
rfingers 7.12502
rthumb 8.3514 -28.5063
lclavicle 0 2.06736e-014
lhumerus -48.2757 1.03797 78.9509
lradius 31.306
lwrist 1.56571
lhand -14.2614 14.0905
lfingers 7.12502
lthumb 11.877 43.7336
rfemur 11.6432 -3.32759 30.3723
rtibia 27.9978
rfoot -16.3671 -14.5483
rtoes -28.7704
lfemur -25.7338 -21.7366 -15.7028
ltibia 29.1947
lfoot -7.85456 15.4881
ltoes -8.71525
579
root 0.538651 15.0592 0.168189 507.002 -84.4418 -509.678
lowerback 8.87666 3.66759 0.482959
upperback 5.56702 4.67209 -1.68995
thorax 0.990816 2.28411 -2.37373
lowerneck -5.72703 0.910324 4.55027
upperneck 4.7843 0.611553 3.03288
head 2.51429 0.465518 0.209645
rclavicle 1.33186e-014 0
rhumerus -33.9469 6.86229 -92.0167
rradius 38.9924
rwrist -19.0767
rhand -17.6971 1.55862
rfingers 7.12502
rthumb 8.56269 -28.2478
lclavicle 1.33186e-014 0
lhumerus -47.3295 2.41723 78.5507
lradius 29.5494
lwrist -0.0504522
lhand -14.2392 13.8957
lfingers 7.12502
lthumb 11.8984 43.5376
rfemur 10.9434 -3.35924 29.5229
rtibia 31.3517
rfoot -15.4923 -13.7774
rtoes -29.3713
lfemur -24.3945 -21.563 -16.5208
ltibia 28.8663
lfoot -7.23299 16.1097
ltoes -6.56055
